<svg width="800" height="800" viewBox="0 0 800 800" fill="none" xmlns="http://www.w3.org/2000/svg">
<path d="M398.437 745.641C589.329 745.641 744.078 590.892 744.078 400C744.078 209.108 589.329 54.3594 398.437 54.3594C207.545 54.3594 52.7969 209.108 52.7969 400C52.7969 590.892 207.545 745.641 398.437 745.641Z" stroke="white" stroke-width="42"/>
<g opacity="0.79">
<path d="M487.422 332.562C495.525 332.562 502.094 325.994 502.094 317.891C502.094 309.788 495.525 303.219 487.422 303.219C479.319 303.219 472.75 309.788 472.75 317.891C472.75 325.994 479.319 332.562 487.422 332.562Z" fill="white"/>
<path d="M489.75 246.875H314.438C280.484 246.875 251.562 274.906 251.562 308.875V484.187C251.562 518.141 280.484 545.328 314.438 545.328H489.75C523.719 545.328 550 518.156 550 484.187V308.875C550 274.906 523.719 246.875 489.75 246.875ZM521.875 475.656C521.955 481.336 520.895 486.974 518.759 492.238C516.623 497.501 513.453 502.283 509.437 506.301C505.421 510.318 500.64 513.49 495.377 515.628C490.115 517.766 484.477 518.828 478.797 518.75H325.406C301.141 518.75 281.25 499.906 281.25 475.656V322.25C281.295 310.556 285.963 299.354 294.235 291.088C302.507 282.822 313.712 278.162 325.406 278.125H478.781C503.125 278.125 521.875 298 521.875 322.25V475.641V475.656Z" fill="white"/>
<path d="M400.781 310.094C383.645 310.094 366.894 315.175 352.646 324.695C338.398 334.216 327.293 347.747 320.736 363.578C314.178 379.41 312.462 396.83 315.805 413.637C319.148 430.444 327.4 445.882 339.517 457.999C351.634 470.115 367.072 478.367 383.879 481.71C400.685 485.053 418.106 483.338 433.937 476.78C449.769 470.222 463.3 459.117 472.82 444.869C482.341 430.621 487.422 413.87 487.422 396.734C487.422 373.756 478.294 351.718 462.045 335.47C445.797 319.222 423.76 310.094 400.781 310.094ZM400.781 453.125C389.628 453.125 378.726 449.818 369.452 443.621C360.179 437.425 352.951 428.618 348.683 418.314C344.415 408.01 343.298 396.672 345.474 385.733C347.65 374.794 353.021 364.747 360.907 356.86C368.793 348.974 378.841 343.603 389.78 341.427C400.719 339.251 412.057 340.368 422.361 344.636C432.665 348.904 441.472 356.132 447.668 365.405C453.865 374.679 457.172 385.581 457.172 396.734C457.168 411.689 451.225 426.03 440.651 436.604C430.077 447.178 415.736 453.121 400.781 453.125Z" fill="white"/>
</g>
</svg>
