<svg width="800" height="800" viewBox="0 0 800 800" fill="none" xmlns="http://www.w3.org/2000/svg">
<g clip-path="url(#clip0_36_9)">
<path d="M400 0C179.063 0 0 179.063 0 400C0 620.937 179.063 800 400 800C620.937 800 800 620.937 800 400C800 179.063 620.937 0 400 0ZM649.688 649.531C617.188 682.031 579.531 707.5 537.5 725.156C494.062 743.594 447.812 752.812 400 752.812C352.344 752.812 306.094 743.437 262.5 725.156C220.469 707.344 182.656 681.875 150.312 649.531C117.812 617.031 92.3438 579.375 74.6875 537.344C56.25 493.906 46.875 447.656 46.875 400C46.875 352.344 56.25 306.094 74.5312 262.5C92.3437 220.469 117.812 182.656 150.156 150.312C182.812 117.812 220.469 92.3437 262.5 74.5312C306.094 56.25 352.344 46.875 400 46.875C447.656 46.875 493.906 56.25 537.5 74.5312C579.531 92.3437 617.344 117.813 649.688 150.156C682.188 182.656 707.656 220.312 725.312 262.344C743.75 305.781 752.969 352.031 752.969 399.844C752.969 447.5 743.594 493.75 725.312 537.344C707.5 579.375 682.031 617.188 649.688 649.531Z" fill="white"/>
<path d="M589.531 262.656C573.594 272.031 556.094 278.906 537.344 282.656C522.344 266.719 500.938 256.719 477.344 256.719C432.031 256.719 395.156 293.594 395.156 338.906C395.156 345.312 395.781 351.562 397.344 357.656C329.063 354.219 268.437 321.562 227.969 271.719C220.937 283.906 216.875 297.969 216.875 313.125C216.875 341.562 231.406 366.719 253.438 381.563C240 381.094 227.344 377.344 216.25 371.25V372.188C216.25 412.031 244.531 445.312 282.187 452.812C275.312 454.687 267.969 455.781 260.469 455.781C255.156 455.781 250 455.312 245 454.375C255.469 487.031 285.781 510.781 321.719 511.406C293.594 533.437 258.125 546.562 219.688 546.562C213.125 546.562 206.562 546.25 200 545.469C236.406 568.75 279.531 582.344 325.937 582.344C477.188 582.344 559.844 457.031 559.844 348.437C559.844 344.844 559.844 341.25 559.687 337.813C575.781 326.094 589.687 311.719 600.625 295.156C585.937 301.719 570 306.094 553.437 308.125C570.469 297.969 583.438 281.875 589.531 262.656Z" fill="white"/>
</g>
<defs>
<clipPath id="clip0_36_9">
<rect width="800" height="800" fill="white"/>
</clipPath>
</defs>
</svg>
